<svg id="svg" version="1.1" xmlns="http://www.w3.org/2000/svg" xmlns:xlink="http://www.w3.org/1999/xlink" width="400" height="230.38869257950532" viewBox="0, 0, 400,230.38869257950532"><g id="svgg"><path id="path0" d="M0.000 115.207 L 0.000 230.415 200.000 230.415 L 400.000 230.415 400.000 115.207 L 400.000 0.000 200.000 0.000 L 0.000 0.000 0.000 115.207 M356.719 15.051 C 357.231 15.305,357.681 16.444,357.498 17.022 C 357.415 17.281,357.511 17.801,357.713 18.191 L 358.076 18.894 360.254 18.894 C 362.313 18.894,362.452 18.925,362.803 19.460 C 363.353 20.299,363.336 50.923,362.786 51.764 L 362.432 52.304 314.431 52.304 C 267.027 52.304,266.426 52.310,266.022 52.756 C 265.030 53.852,266.166 54.376,269.543 54.382 C 272.544 54.386,273.559 54.820,274.319 56.422 C 274.925 57.702,275.696 58.283,276.795 58.290 C 278.388 58.299,279.291 58.982,280.515 61.100 C 281.124 62.155,281.804 63.281,282.025 63.602 C 282.246 63.922,282.650 64.596,282.921 65.099 C 283.193 65.602,283.839 66.688,284.357 67.512 C 284.875 68.335,285.502 69.372,285.749 69.816 C 285.996 70.259,286.551 71.192,286.982 71.889 C 287.413 72.586,288.035 73.623,288.364 74.194 C 288.693 74.764,289.315 75.801,289.747 76.498 C 290.178 77.195,290.807 78.278,291.145 78.906 C 291.483 79.533,291.942 80.311,292.165 80.634 C 292.537 81.172,293.744 83.187,295.507 86.212 C 296.995 88.765,297.538 88.749,299.095 86.105 C 299.633 85.193,300.302 84.084,300.582 83.641 C 300.863 83.197,301.488 82.160,301.972 81.336 C 302.455 80.513,303.117 79.405,303.442 78.875 C 303.766 78.345,304.343 77.381,304.724 76.733 C 305.104 76.085,305.743 75.015,306.144 74.356 C 306.545 73.696,307.125 72.742,307.433 72.235 C 308.283 70.832,310.157 67.680,311.060 66.134 C 311.503 65.374,312.437 63.817,313.134 62.673 C 314.839 59.875,315.986 57.931,316.668 56.682 C 316.979 56.112,317.582 55.386,318.006 55.069 L 318.779 54.493 337.262 54.431 L 355.744 54.370 356.113 55.082 C 356.467 55.766,356.458 55.824,355.890 56.568 C 355.194 57.480,355.197 57.468,355.662 57.933 C 355.945 58.216,356.557 58.295,358.484 58.297 C 363.105 58.302,363.601 58.729,361.803 61.154 C 361.324 61.799,360.342 63.209,359.620 64.286 C 358.898 65.363,357.997 66.659,357.618 67.166 C 357.239 67.673,356.722 68.450,356.469 68.894 C 356.216 69.338,355.639 70.219,355.186 70.853 C 354.733 71.486,354.088 72.419,353.753 72.926 C 353.417 73.433,352.358 75.022,351.399 76.457 C 350.439 77.892,349.395 79.460,349.078 79.942 C 348.762 80.424,348.302 81.116,348.057 81.481 C 347.811 81.845,347.137 82.853,346.559 83.721 C 345.980 84.588,345.358 85.521,345.175 85.794 C 344.993 86.067,344.371 87.000,343.793 87.868 C 343.215 88.736,342.593 89.669,342.410 89.942 C 341.530 91.259,339.942 93.647,339.652 94.089 C 339.227 94.737,337.286 97.637,336.952 98.124 C 336.809 98.332,336.215 99.228,335.633 100.115 C 335.050 101.002,334.128 102.350,333.582 103.111 C 333.037 103.871,332.386 104.824,332.136 105.229 C 331.886 105.633,330.588 107.603,329.250 109.607 C 327.912 111.610,326.668 113.474,326.485 113.748 C 326.302 114.023,324.742 116.356,323.018 118.933 C 321.295 121.509,319.791 123.773,319.677 123.963 C 319.560 124.158,319.420 134.473,319.355 147.632 L 319.240 170.955 318.715 171.480 L 318.190 172.005 301.779 172.070 C 292.753 172.105,285.132 172.077,284.843 172.006 C 284.165 171.840,283.412 170.600,283.411 169.649 C 283.410 168.638,282.542 168.203,280.530 168.203 C 278.630 168.203,277.764 167.793,277.565 166.801 C 277.485 166.400,277.419 155.876,277.419 143.415 C 277.419 125.851,277.355 120.614,277.133 120.115 C 276.319 118.285,266.703 104.147,266.272 104.147 C 265.431 104.147,265.438 103.884,265.438 137.478 C 265.438 162.399,265.372 170.400,265.163 170.859 C 264.603 172.087,264.338 172.120,255.138 172.114 L 246.659 172.107 245.779 171.290 C 245.295 170.840,244.703 170.013,244.463 169.453 C 244.063 168.522,243.955 168.433,243.211 168.433 C 242.287 168.433,242.164 168.786,242.766 169.705 C 243.051 170.140,243.088 170.467,242.930 171.137 L 242.725 172.005 223.955 172.068 C 213.631 172.103,204.959 172.077,204.684 172.010 C 203.855 171.810,202.739 170.714,202.284 169.655 C 201.803 168.531,201.209 168.203,199.657 168.203 C 197.836 168.203,197.445 167.679,193.195 159.562 C 192.465 158.168,191.676 156.780,191.441 156.478 C 191.206 156.176,191.014 155.820,191.014 155.687 C 191.014 155.553,190.459 154.453,189.780 153.241 C 187.540 149.237,183.641 141.985,183.641 141.821 C 183.641 141.733,183.446 141.386,183.209 141.049 C 182.971 140.713,182.209 139.349,181.515 138.018 C 175.684 126.846,175.160 126.267,170.877 126.267 C 167.372 126.267,167.742 123.569,167.742 149.127 L 167.742 170.773 167.068 171.446 C 165.671 172.844,162.923 171.854,162.211 169.697 C 161.864 168.647,161.290 168.628,161.290 169.666 C 161.290 170.843,160.849 171.876,160.288 172.013 C 160.016 172.080,152.050 172.105,142.588 172.070 L 125.383 172.005 124.784 171.442 C 124.455 171.133,124.065 170.478,123.918 169.987 C 123.513 168.635,122.809 168.204,120.994 168.195 C 118.697 168.184,118.424 167.817,116.958 162.771 C 115.016 156.082,114.477 154.467,114.043 154.033 C 113.593 153.582,113.197 153.568,97.402 153.448 L 81.221 153.325 80.300 153.917 C 79.481 154.443,79.335 154.680,78.994 156.037 C 78.783 156.877,78.401 158.170,78.145 158.909 C 77.889 159.649,77.355 161.394,76.959 162.788 C 74.735 170.606,74.556 171.079,73.614 171.661 C 72.870 172.121,72.588 172.128,56.025 172.067 C 37.046 171.997,38.594 172.178,38.594 170.026 C 38.594 168.279,38.484 168.211,35.642 168.206 C 32.401 168.201,31.839 167.605,32.862 165.258 C 33.067 164.786,33.472 163.779,33.762 163.018 C 34.051 162.258,34.667 160.651,35.130 159.447 C 35.593 158.243,36.270 156.429,36.633 155.415 C 36.997 154.401,37.624 152.742,38.028 151.728 C 38.431 150.714,39.053 149.107,39.409 148.157 C 42.087 141.008,42.656 139.493,43.517 137.212 C 43.900 136.198,44.575 134.384,45.019 133.180 C 46.016 130.471,47.069 127.646,47.983 125.230 C 48.367 124.217,48.919 122.713,49.209 121.889 C 49.500 121.066,50.167 119.303,50.693 117.972 C 52.278 113.959,52.789 112.628,53.349 111.060 C 53.884 109.562,55.174 106.116,56.499 102.650 C 56.886 101.636,57.444 100.132,57.738 99.309 C 58.032 98.485,58.651 96.826,59.113 95.622 C 60.267 92.619,61.110 90.371,62.051 87.788 C 62.490 86.584,63.133 84.821,63.479 83.871 C 63.825 82.921,64.188 82.039,64.284 81.912 C 64.381 81.786,64.536 81.423,64.628 81.106 C 64.721 80.789,65.038 79.908,65.333 79.147 C 65.629 78.387,66.411 76.313,67.071 74.539 C 67.732 72.765,68.626 70.380,69.058 69.240 C 69.490 68.099,70.139 66.336,70.502 65.323 C 70.864 64.309,71.619 62.287,72.179 60.829 C 72.740 59.372,73.378 57.640,73.596 56.981 C 73.848 56.221,74.286 55.525,74.793 55.080 L 75.592 54.378 94.009 54.378 L 112.426 54.378 113.234 55.087 C 113.740 55.531,114.096 56.091,114.190 56.588 C 114.410 57.760,115.227 58.295,116.799 58.295 C 118.757 58.295,119.533 59.031,120.496 61.799 C 121.644 65.100,124.911 73.594,125.118 73.815 C 125.220 73.924,125.494 73.721,125.727 73.364 C 126.124 72.758,126.147 72.167,126.073 64.378 C 126.017 58.511,126.070 55.898,126.253 55.557 C 126.925 54.302,125.066 54.361,161.231 54.442 C 196.080 54.520,195.833 54.514,203.226 55.516 C 209.308 56.340,215.147 58.968,219.355 62.774 C 221.099 64.353,222.401 64.821,222.828 64.024 C 223.377 62.997,222.992 53.238,222.382 52.744 C 221.849 52.313,220.089 52.304,132.337 52.304 L 42.836 52.304 42.276 51.744 C 41.952 51.420,41.650 50.774,41.560 50.211 C 41.325 48.741,40.837 48.387,39.048 48.387 C 37.595 48.387,36.155 47.992,35.858 47.511 C 35.645 47.167,35.607 16.028,35.819 15.685 C 36.414 14.722,29.133 14.761,196.889 14.813 C 284.585 14.840,356.508 14.947,356.719 15.051 M169.437 81.983 C 167.864 82.136,167.865 82.135,167.791 90.678 C 167.701 101.099,167.243 100.358,173.668 100.175 C 187.346 99.786,193.405 95.847,192.761 87.764 C 192.428 83.579,191.566 82.689,187.442 82.274 C 184.975 82.026,171.276 81.804,169.437 81.983 M96.241 99.942 C 96.054 100.544,95.583 102.074,95.193 103.341 C 94.804 104.608,93.972 107.304,93.345 109.332 C 92.717 111.359,91.771 114.470,91.243 116.244 C 90.714 118.018,90.083 120.086,89.841 120.840 C 89.291 122.550,89.258 124.089,89.765 124.284 C 90.847 124.699,104.305 124.426,104.708 123.981 C 105.185 123.453,104.928 122.277,102.964 116.014 C 100.972 109.661,99.132 103.588,98.419 101.010 C 97.812 98.815,96.752 98.296,96.241 99.942 M220.382 117.086 C 218.313 118.431,215.310 119.869,213.432 120.415 C 210.345 121.313,210.817 123.069,214.660 124.983 C 215.971 125.635,219.037 128.479,221.614 131.432 C 223.296 133.359,223.328 133.223,223.311 124.197 C 223.293 114.769,223.431 115.104,220.382 117.086 M352.057 175.222 C 352.765 175.588,352.995 175.993,352.995 176.874 C 352.995 178.428,353.811 179.024,355.945 179.029 C 358.968 179.037,358.756 177.756,358.756 195.998 L 358.756 211.544 357.957 211.878 C 356.695 212.405,37.901 212.381,37.148 211.853 C 36.768 211.587,36.636 211.263,36.636 210.597 C 36.636 208.612,35.605 207.911,33.117 208.203 C 32.005 208.334,31.812 208.292,31.371 207.818 L 30.876 207.286 30.876 191.598 C 30.876 177.771,30.918 175.848,31.234 175.397 L 31.593 174.885 191.499 174.885 C 331.391 174.885,351.487 174.927,352.057 175.222 M119.931 182.674 C 111.943 185.526,109.409 195.791,115.664 199.964 L 116.926 200.806 119.926 200.806 C 123.196 200.806,126.595 199.855,127.319 198.737 C 128.120 197.500,128.789 192.322,128.245 191.576 C 127.756 190.907,122.019 190.762,121.237 191.400 C 119.932 192.465,120.764 193.769,122.753 193.775 C 124.944 193.783,125.338 195.531,123.482 196.999 L 122.309 197.926 120.114 197.926 L 117.919 197.926 117.031 196.954 C 116.005 195.832,115.781 194.874,115.949 192.319 C 116.340 186.374,122.579 183.195,125.875 187.262 C 127.017 188.671,130.017 188.297,129.639 186.792 C 128.939 184.004,123.120 181.536,119.931 182.674 M153.759 182.819 C 152.762 183.262,152.847 182.896,151.480 192.627 C 151.293 193.957,151.028 195.772,150.890 196.659 C 150.332 200.263,150.325 200.173,151.196 200.588 C 153.083 201.488,154.051 200.517,154.373 197.400 C 154.948 191.828,158.656 192.448,161.406 198.577 C 162.404 200.802,163.906 201.561,165.213 200.502 C 165.852 199.985,165.692 199.375,164.149 196.425 C 162.870 193.980,162.976 192.396,164.418 192.396 C 164.569 192.396,165.121 191.956,165.644 191.417 C 168.155 188.831,167.830 185.156,164.918 183.228 C 163.768 182.466,155.256 182.154,153.759 182.819 M195.853 182.655 C 195.662 182.726,195.248 182.963,194.931 183.181 C 194.614 183.398,193.970 183.701,193.501 183.854 C 192.312 184.239,190.416 186.380,189.486 188.387 C 187.136 193.457,188.029 197.407,192.166 200.252 C 192.903 200.759,193.200 200.806,195.622 200.806 L 198.272 200.806 200.001 199.838 C 208.599 195.019,207.327 182.426,198.250 182.507 C 197.121 182.517,196.043 182.583,195.853 182.655 M229.954 182.691 C 229.249 182.882,228.572 184.141,228.572 185.263 C 228.572 185.711,228.427 186.644,228.250 187.336 C 225.918 196.475,227.508 200.692,233.357 200.886 C 238.546 201.057,241.067 198.522,242.260 191.935 C 243.764 183.628,243.710 182.488,241.810 182.488 C 240.255 182.488,239.547 184.242,239.066 189.286 C 238.450 195.746,237.120 197.926,233.795 197.926 C 231.252 197.926,230.325 196.626,230.843 193.785 C 230.994 192.958,231.322 190.985,231.572 189.401 C 231.822 187.817,232.113 186.028,232.218 185.426 C 232.636 183.031,231.914 182.158,229.954 182.691 M267.025 182.834 C 266.214 183.275,265.981 183.996,265.682 186.982 C 265.543 188.376,265.231 190.605,264.988 191.935 C 263.632 199.376,263.771 200.922,265.799 200.922 C 266.862 200.922,267.206 200.355,267.622 197.926 C 268.324 193.815,268.365 193.779,272.253 193.779 C 275.854 193.779,277.262 193.125,278.812 190.734 C 280.709 187.805,279.984 184.375,277.162 182.936 C 276.022 182.354,268.055 182.274,267.025 182.834 M162.319 185.581 C 164.703 186.577,163.782 189.989,160.912 190.793 C 159.679 191.138,156.370 190.963,155.842 190.525 C 155.429 190.183,155.571 187.535,156.059 186.463 C 156.582 185.315,160.397 184.778,162.319 185.581 M199.793 185.847 C 204.501 188.240,201.404 197.926,195.931 197.926 C 194.630 197.926,194.401 197.852,193.635 197.179 C 189.143 193.235,194.593 183.204,199.793 185.847 M275.303 185.778 C 276.778 186.987,276.149 189.412,274.078 190.499 C 273.139 190.991,269.820 191.033,269.248 190.560 C 268.567 189.995,269.048 186.748,269.964 185.729 C 270.394 185.251,274.709 185.291,275.303 185.778 " stroke="none" fill="#ffffff" fill-rule="evenodd"></path><path id="path1" d="M357.502 19.406 C 357.187 19.855,357.143 21.530,357.143 32.972 C 357.143 40.151,357.077 46.354,356.997 46.755 C 356.696 48.261,360.340 48.157,308.065 48.157 C 256.596 48.157,259.474 48.086,259.134 49.357 C 259.056 49.647,258.991 76.066,258.988 108.065 C 258.984 166.073,258.983 166.246,258.518 167.009 L 258.051 167.775 252.355 167.740 C 244.447 167.693,245.000 167.653,244.578 168.296 C 244.095 169.034,244.534 170.133,245.774 171.285 L 246.659 172.107 255.116 172.114 C 261.194 172.118,263.743 172.042,264.177 171.845 C 265.510 171.237,265.438 173.256,265.438 136.408 L 265.438 102.516 264.948 101.556 C 264.444 100.568,263.260 98.713,262.484 97.696 C 262.242 97.379,261.745 96.550,261.379 95.853 L 260.714 94.585 260.599 75.230 L 260.484 55.876 261.271 55.127 C 261.867 54.560,262.265 54.378,262.907 54.378 C 264.194 54.378,265.116 53.966,265.781 53.093 L 266.383 52.304 314.407 52.304 L 362.432 52.304 362.786 51.764 C 363.336 50.923,363.353 20.299,362.803 19.460 C 362.258 18.629,358.076 18.586,357.502 19.406 M42.084 48.722 C 41.192 49.549,41.483 51.462,42.592 52.055 C 43.277 52.422,221.412 52.407,222.218 52.040 C 223.574 51.422,223.474 48.894,222.074 48.406 C 221.567 48.229,195.399 48.157,132.027 48.157 L 42.694 48.157 42.084 48.722 M115.240 58.501 C 114.680 58.855,115.090 60.553,116.804 64.977 C 117.712 67.321,119.242 71.365,120.204 73.963 C 121.166 76.561,122.360 79.775,122.858 81.106 C 123.357 82.437,124.061 84.355,124.423 85.369 C 125.969 89.694,126.439 90.937,126.776 91.590 C 126.973 91.970,127.208 92.644,127.299 93.088 C 127.390 93.531,127.659 94.233,127.897 94.647 C 128.136 95.062,128.491 96.019,128.687 96.774 C 128.882 97.530,129.235 98.487,129.470 98.901 C 129.705 99.315,130.020 100.173,130.171 100.806 C 130.322 101.440,130.586 102.177,130.758 102.443 C 131.068 102.921,131.860 105.017,132.752 107.719 C 133.003 108.479,133.396 109.464,133.625 109.908 C 133.854 110.351,134.217 111.325,134.433 112.071 C 134.648 112.818,134.966 113.647,135.139 113.915 C 135.312 114.182,135.578 114.919,135.730 115.553 C 135.882 116.187,136.188 117.016,136.411 117.396 C 136.633 117.776,136.990 118.710,137.204 119.470 C 137.418 120.230,137.726 121.060,137.888 121.313 C 138.051 121.567,138.356 122.368,138.567 123.095 C 138.778 123.821,139.143 124.754,139.378 125.168 C 139.613 125.583,139.928 126.440,140.079 127.074 C 140.229 127.707,140.499 128.452,140.678 128.728 C 140.857 129.004,141.209 129.974,141.461 130.884 C 141.713 131.793,142.026 132.666,142.156 132.822 C 142.286 132.979,142.652 133.849,142.970 134.756 C 143.288 135.663,143.799 137.119,144.105 137.990 C 144.412 138.862,144.864 139.977,145.111 140.467 C 145.358 140.958,145.688 141.904,145.844 142.570 C 146.001 143.236,146.219 143.836,146.330 143.904 C 146.440 143.972,146.746 144.752,147.009 145.638 C 147.273 146.524,147.678 147.583,147.910 147.991 C 148.141 148.399,148.447 149.219,148.589 149.814 C 148.731 150.409,149.043 151.238,149.280 151.657 C 149.518 152.076,149.837 152.938,149.989 153.571 C 150.141 154.205,150.451 155.035,150.678 155.415 C 150.905 155.795,151.216 156.624,151.369 157.258 C 151.522 157.892,151.833 158.721,152.060 159.101 C 152.287 159.482,152.598 160.311,152.751 160.945 C 152.905 161.578,153.221 162.408,153.454 162.788 C 153.927 163.558,154.608 165.989,154.608 166.903 C 154.608 167.965,154.509 167.972,139.405 167.972 C 123.185 167.972,123.554 167.935,123.815 169.542 C 123.974 170.524,124.588 171.428,125.368 171.828 C 125.994 172.150,160.027 172.257,160.527 171.939 C 160.922 171.687,161.290 170.601,161.290 169.685 C 161.290 168.629,161.861 168.636,162.211 169.697 C 162.923 171.854,165.671 172.844,167.068 171.446 L 167.742 170.773 167.742 149.127 C 167.742 123.582,167.362 126.323,170.920 126.218 C 173.145 126.152,173.157 126.149,173.227 125.546 C 173.296 124.952,170.978 123.041,170.190 123.041 C 170.044 123.041,169.149 122.797,168.200 122.498 C 164.952 121.475,162.090 121.516,161.513 122.595 C 161.344 122.911,161.270 130.130,161.274 145.833 C 161.281 168.343,161.276 168.614,160.825 168.731 C 160.574 168.797,160.316 168.765,160.251 168.660 C 160.186 168.554,159.631 168.302,159.017 168.098 C 157.262 167.515,156.972 167.059,155.494 162.558 C 155.245 161.797,154.853 160.812,154.624 160.369 C 154.395 159.925,154.031 158.952,153.816 158.205 C 153.601 157.459,153.283 156.629,153.110 156.362 C 152.937 156.094,152.669 155.357,152.516 154.724 C 152.362 154.090,152.049 153.197,151.820 152.738 C 151.592 152.280,151.283 151.399,151.134 150.780 C 150.986 150.161,150.709 149.406,150.520 149.103 C 150.331 148.799,149.917 147.814,149.601 146.914 C 148.505 143.793,147.773 141.816,147.416 141.014 C 147.219 140.570,146.981 139.844,146.887 139.401 C 146.794 138.957,146.486 138.128,146.204 137.558 C 145.922 136.987,145.564 136.002,145.409 135.369 C 145.253 134.735,144.936 133.906,144.704 133.525 C 144.472 133.145,144.158 132.368,144.006 131.799 C 143.855 131.229,143.549 130.399,143.328 129.955 C 143.106 129.511,142.799 128.629,142.646 127.995 C 142.492 127.362,142.204 126.594,142.007 126.289 C 141.809 125.984,141.408 124.999,141.115 124.100 C 140.822 123.201,140.255 121.584,139.854 120.507 C 139.453 119.430,138.877 117.823,138.575 116.935 C 138.273 116.048,137.912 115.129,137.773 114.893 C 137.634 114.657,137.279 113.775,136.983 112.934 C 136.049 110.283,134.761 106.788,132.701 101.325 C 130.927 96.620,130.568 95.640,130.147 94.355 C 129.898 93.594,129.501 92.602,129.265 92.150 C 129.029 91.698,128.667 90.674,128.459 89.874 C 128.252 89.075,127.941 88.200,127.769 87.931 C 126.898 86.576,126.267 83.372,126.267 80.301 C 126.267 76.860,126.277 76.897,123.506 69.816 C 122.589 67.471,121.382 64.257,120.824 62.673 C 119.544 59.040,118.864 58.293,116.839 58.298 C 116.132 58.300,115.412 58.391,115.240 58.501 M275.960 58.449 C 275.681 58.727,275.800 60.307,276.120 60.573 C 276.293 60.716,276.929 61.688,277.535 62.732 C 278.140 63.777,278.864 64.994,279.144 65.438 C 279.792 66.464,280.751 68.058,282.125 70.392 C 282.722 71.406,283.628 72.909,284.140 73.733 C 284.651 74.556,285.271 75.593,285.518 76.037 C 285.766 76.480,286.300 77.387,286.705 78.052 C 287.111 78.716,287.952 80.116,288.576 81.162 C 289.199 82.208,290.152 83.790,290.694 84.677 C 291.235 85.565,292.218 87.224,292.879 88.364 C 294.393 90.979,294.627 91.244,295.411 91.244 C 296.823 91.244,297.623 88.649,296.519 87.651 C 296.252 87.410,295.784 86.745,295.480 86.175 C 295.176 85.605,294.503 84.464,293.984 83.641 C 293.466 82.817,292.838 81.780,292.590 81.336 C 292.341 80.893,291.735 79.856,291.244 79.032 C 290.752 78.209,290.080 77.068,289.749 76.498 C 289.419 75.927,288.795 74.891,288.364 74.194 C 287.933 73.497,287.354 72.515,287.078 72.012 C 286.801 71.509,286.394 70.835,286.172 70.514 C 285.826 70.013,284.844 68.375,283.089 65.377 C 282.849 64.967,282.423 64.268,282.142 63.825 C 281.860 63.381,281.130 62.155,280.519 61.100 C 279.180 58.791,276.928 57.481,275.960 58.449 M354.577 58.858 C 353.853 59.351,351.077 63.310,346.005 71.083 C 345.675 71.590,344.753 72.954,343.958 74.114 C 342.789 75.819,338.812 81.742,337.308 84.019 C 337.128 84.291,336.506 85.224,335.924 86.093 C 335.343 86.962,334.721 87.896,334.542 88.169 C 334.363 88.442,333.744 89.375,333.166 90.243 C 332.588 91.110,331.965 92.045,331.783 92.321 C 331.601 92.596,330.355 94.462,329.015 96.468 C 327.676 98.474,326.431 100.340,326.250 100.615 C 326.070 100.889,324.601 103.067,322.988 105.453 C 314.929 117.371,313.635 119.364,313.283 120.395 C 312.940 121.402,312.903 123.714,312.903 144.065 C 312.903 166.762,312.886 167.284,312.120 167.796 C 311.980 167.889,305.801 167.967,298.387 167.970 C 283.152 167.975,283.409 167.946,283.411 169.639 C 283.412 170.599,284.163 171.839,284.843 172.006 C 285.132 172.077,292.753 172.105,301.779 172.070 L 318.190 172.005 318.715 171.480 L 319.240 170.955 319.355 147.632 C 319.420 134.473,319.560 124.158,319.677 123.963 C 319.791 123.773,321.295 121.509,323.018 118.933 C 324.742 116.356,326.302 114.023,326.485 113.748 C 326.668 113.474,327.912 111.610,329.250 109.607 C 330.588 107.603,331.886 105.633,332.136 105.229 C 332.386 104.824,333.037 103.871,333.582 103.111 C 334.128 102.350,335.050 101.002,335.633 100.115 C 336.215 99.228,336.809 98.332,336.952 98.124 C 337.286 97.637,339.227 94.737,339.652 94.089 C 339.942 93.647,341.530 91.259,342.410 89.942 C 342.593 89.669,343.215 88.736,343.793 87.868 C 344.371 87.000,344.993 86.067,345.175 85.794 C 345.358 85.521,345.980 84.588,346.559 83.721 C 347.137 82.853,347.811 81.845,348.057 81.481 C 348.302 81.116,348.762 80.424,349.078 79.942 C 349.395 79.460,350.439 77.892,351.399 76.457 C 352.358 75.022,353.417 73.433,353.753 72.926 C 354.088 72.419,354.733 71.486,355.186 70.853 C 355.639 70.219,356.216 69.338,356.469 68.894 C 356.722 68.450,357.239 67.673,357.618 67.166 C 357.997 66.659,358.898 65.363,359.620 64.286 C 360.342 63.209,361.324 61.799,361.803 61.154 C 363.004 59.535,363.006 58.641,361.809 58.443 C 359.408 58.046,355.437 58.274,354.577 58.858 M221.904 65.305 C 221.584 65.691,222.091 66.756,223.394 68.433 C 223.838 69.003,224.354 69.833,224.543 70.276 C 224.732 70.720,225.103 71.484,225.368 71.973 C 225.633 72.463,226.055 73.601,226.305 74.503 C 226.554 75.404,226.853 76.256,226.969 76.395 C 228.086 77.741,228.165 94.410,227.059 95.636 C 226.881 95.834,226.534 96.803,226.287 97.789 C 226.041 98.775,225.679 99.759,225.483 99.975 C 225.287 100.192,224.970 100.813,224.778 101.357 C 224.587 101.901,224.169 102.656,223.851 103.034 C 223.532 103.412,223.272 103.830,223.272 103.962 C 223.272 104.710,217.711 110.377,215.289 112.097 C 214.194 112.874,210.960 114.747,210.711 114.747 C 210.583 114.747,210.065 114.967,209.561 115.237 C 209.058 115.507,207.934 115.925,207.064 116.166 C 202.352 117.472,202.333 118.001,206.912 120.294 C 209.990 121.836,210.934 122.016,211.736 121.213 C 211.972 120.977,212.736 120.618,213.432 120.415 C 216.481 119.529,222.119 116.355,222.984 115.038 C 223.313 114.537,223.408 113.721,223.502 110.611 L 223.618 106.797 224.473 105.415 C 225.369 103.965,226.981 100.801,227.961 98.567 C 229.282 95.557,230.536 88.823,230.484 85.023 C 230.453 82.755,230.108 79.490,229.801 78.571 C 229.611 78.001,229.213 76.674,228.917 75.622 C 228.621 74.570,228.281 73.585,228.162 73.433 C 228.043 73.281,227.790 72.690,227.600 72.120 C 227.410 71.550,227.007 70.703,226.703 70.238 C 226.400 69.773,225.841 68.845,225.461 68.177 C 224.232 66.016,222.485 64.605,221.904 65.305 M162.505 77.911 C 161.223 78.273,161.228 78.229,161.272 89.383 C 161.320 101.675,160.995 100.576,164.580 100.576 C 167.547 100.576,168.290 100.218,167.941 98.958 C 167.450 97.179,167.802 83.016,168.351 82.468 C 168.933 81.886,182.370 81.730,187.090 82.250 C 191.918 82.782,190.839 80.338,185.484 78.613 C 182.718 77.723,165.077 77.183,162.505 77.911 M92.392 87.154 C 92.268 87.440,91.970 88.502,91.729 89.516 C 91.489 90.530,90.597 93.589,89.748 96.313 C 88.899 99.038,87.919 102.252,87.571 103.456 C 86.945 105.616,85.716 109.626,83.263 117.512 C 81.161 124.269,81.273 123.690,81.940 124.357 C 82.500 124.917,82.585 124.929,85.334 124.851 C 88.750 124.752,89.401 124.469,89.401 123.081 C 89.401 122.602,89.599 121.593,89.841 120.840 C 90.083 120.086,90.714 118.018,91.243 116.244 C 91.771 114.470,92.717 111.359,93.345 109.332 C 93.972 107.304,94.802 104.608,95.188 103.341 C 95.575 102.074,96.142 100.311,96.449 99.424 C 97.211 97.222,97.161 96.478,95.992 92.625 C 95.435 90.788,94.810 88.690,94.603 87.961 C 94.172 86.442,92.902 85.979,92.392 87.154 M213.825 125.011 C 213.825 125.394,214.798 126.907,216.540 129.233 C 219.364 133.005,219.828 133.738,221.390 136.903 C 222.162 138.467,223.137 140.317,223.557 141.014 C 223.977 141.711,224.470 142.644,224.653 143.088 C 225.100 144.174,227.843 149.509,228.324 150.230 C 228.536 150.547,229.896 153.163,231.348 156.042 C 232.799 158.922,234.318 161.877,234.723 162.609 C 236.578 165.960,237.048 167.398,236.403 167.744 C 236.131 167.889,230.134 167.973,220.004 167.974 C 203.957 167.975,202.504 168.042,202.214 168.796 C 201.880 169.668,203.451 171.713,204.684 172.010 C 204.959 172.077,213.631 172.103,223.955 172.068 L 242.725 172.005 242.931 171.132 C 243.199 169.999,242.509 168.902,240.614 167.443 C 239.348 166.469,239.155 166.180,237.328 162.524 C 236.260 160.388,235.030 158.018,234.594 157.258 C 233.828 155.923,231.286 150.916,230.392 148.984 C 230.152 148.466,229.594 147.419,229.153 146.659 C 228.711 145.899,227.411 143.388,226.262 141.079 C 225.114 138.770,224.084 136.826,223.975 136.758 C 223.865 136.691,223.703 136.091,223.614 135.426 C 223.315 133.204,222.813 132.497,218.322 127.977 C 215.927 125.568,213.825 124.181,213.825 125.011 M74.194 149.598 C 73.409 149.990,72.836 151.308,71.563 155.645 C 70.968 157.673,70.072 160.661,69.572 162.286 C 69.072 163.911,68.660 165.415,68.656 165.627 C 68.652 165.840,68.362 166.429,68.011 166.935 L 67.374 167.857 53.780 167.972 C 41.186 168.079,40.140 168.118,39.553 168.503 C 38.308 169.319,38.157 171.460,39.313 171.900 C 40.631 172.401,72.785 172.173,73.621 171.657 C 74.555 171.079,74.737 170.596,76.959 162.788 C 77.355 161.394,77.924 159.528,78.223 158.641 C 78.522 157.753,78.889 156.480,79.039 155.811 C 79.251 154.868,79.488 154.460,80.094 153.998 L 80.876 153.401 96.922 153.371 L 112.968 153.341 113.416 152.742 C 113.942 152.037,113.653 150.563,112.844 149.831 C 112.259 149.302,75.232 149.079,74.194 149.598 M352.946 179.256 L 352.419 179.683 352.356 193.400 L 352.294 207.118 351.692 207.591 L 351.090 208.065 194.324 208.065 C 37.865 208.065,37.557 208.065,37.097 208.525 C 36.406 209.216,36.439 211.357,37.148 211.853 C 37.901 212.381,356.695 212.405,357.957 211.878 L 358.756 211.544 358.756 195.864 C 358.756 177.287,359.171 179.226,355.135 178.946 C 353.748 178.849,353.385 178.901,352.946 179.256 " stroke="none" fill="#271212" fill-rule="evenodd"></path><path id="path2" d="M36.721 15.078 C 36.325 15.251,35.919 15.524,35.819 15.685 C 35.607 16.028,35.645 47.167,35.858 47.511 C 36.155 47.992,37.595 48.387,39.048 48.387 C 40.239 48.387,40.648 48.482,41.008 48.842 C 41.461 49.295,41.466 49.295,42.079 48.727 L 42.694 48.157 132.027 48.157 C 228.254 48.157,222.597 48.077,223.048 49.442 C 223.303 50.218,223.016 51.838,222.620 51.847 C 221.961 51.862,221.833 52.300,222.363 52.728 L 222.926 53.184 222.996 58.382 C 223.089 65.326,222.698 65.799,219.355 62.774 C 215.147 58.968,209.308 56.340,203.226 55.516 C 195.833 54.514,196.080 54.520,161.231 54.442 C 125.066 54.361,126.925 54.302,126.253 55.557 C 126.070 55.898,126.017 58.519,126.073 64.409 C 126.150 72.555,126.140 72.793,125.679 73.411 L 125.205 74.045 125.736 75.667 C 126.181 77.024,126.267 77.778,126.267 80.301 C 126.267 83.372,126.898 86.576,127.769 87.931 C 127.941 88.200,128.252 89.075,128.459 89.874 C 128.667 90.674,129.029 91.698,129.265 92.150 C 129.501 92.602,129.898 93.594,130.147 94.355 C 130.568 95.640,130.927 96.620,132.701 101.325 C 134.761 106.788,136.049 110.283,136.983 112.934 C 137.279 113.775,137.634 114.657,137.773 114.893 C 137.912 115.129,138.273 116.048,138.575 116.935 C 138.877 117.823,139.453 119.430,139.854 120.507 C 140.255 121.584,140.822 123.201,141.115 124.100 C 141.408 124.999,141.809 125.984,142.007 126.289 C 142.204 126.594,142.492 127.362,142.646 127.995 C 142.799 128.629,143.106 129.511,143.328 129.955 C 143.549 130.399,143.855 131.229,144.006 131.799 C 144.158 132.368,144.472 133.145,144.704 133.525 C 144.936 133.906,145.253 134.735,145.409 135.369 C 145.564 136.002,145.922 136.987,146.204 137.558 C 146.486 138.128,146.794 138.957,146.887 139.401 C 146.981 139.844,147.219 140.570,147.416 141.014 C 147.773 141.816,148.505 143.793,149.601 146.914 C 149.917 147.814,150.331 148.799,150.520 149.103 C 150.709 149.406,150.986 150.161,151.134 150.780 C 151.283 151.399,151.592 152.280,151.820 152.738 C 152.049 153.197,152.362 154.090,152.516 154.724 C 152.669 155.357,152.937 156.094,153.110 156.362 C 153.283 156.629,153.601 157.459,153.816 158.205 C 154.031 158.952,154.395 159.925,154.624 160.369 C 154.853 160.812,155.245 161.797,155.494 162.558 C 156.972 167.059,157.262 167.515,159.017 168.098 C 159.631 168.302,160.186 168.554,160.251 168.660 C 160.316 168.765,160.574 168.797,160.825 168.731 C 161.276 168.614,161.281 168.343,161.274 145.833 C 161.270 130.130,161.344 122.911,161.513 122.595 C 162.090 121.516,164.952 121.475,168.200 122.498 C 169.149 122.797,170.044 123.041,170.190 123.041 C 171.058 123.041,173.312 124.966,173.216 125.625 C 173.127 126.228,173.226 126.354,174.174 126.842 C 175.957 127.759,176.950 129.271,181.515 138.018 C 182.209 139.349,182.971 140.713,183.209 141.049 C 183.446 141.386,183.641 141.733,183.641 141.821 C 183.641 141.985,187.540 149.237,189.780 153.241 C 190.459 154.453,191.014 155.553,191.014 155.687 C 191.014 155.820,191.206 156.176,191.441 156.478 C 191.676 156.780,192.465 158.168,193.195 159.562 C 197.479 167.744,197.824 168.202,199.730 168.204 C 200.322 168.205,201.109 168.364,201.480 168.557 C 201.929 168.791,202.203 168.828,202.302 168.666 C 202.685 168.048,204.609 167.972,220.002 167.972 C 230.136 167.972,236.131 167.889,236.403 167.744 C 237.048 167.398,236.578 165.960,234.723 162.609 C 234.318 161.877,232.799 158.922,231.348 156.042 C 229.896 153.163,228.536 150.547,228.324 150.230 C 227.843 149.509,225.100 144.174,224.653 143.088 C 224.470 142.644,223.977 141.711,223.557 141.014 C 223.137 140.317,222.162 138.467,221.390 136.903 C 219.828 133.738,219.364 133.005,216.540 129.233 C 214.280 126.214,213.656 125.132,214.040 124.894 C 214.202 124.794,214.084 124.637,213.729 124.475 C 212.813 124.057,211.290 122.566,211.290 122.086 C 211.290 121.732,211.142 121.654,210.541 121.691 C 209.795 121.737,204.539 119.305,203.630 118.492 C 202.901 117.841,204.204 116.959,207.064 116.166 C 207.934 115.925,209.058 115.507,209.561 115.237 C 210.065 114.967,210.583 114.747,210.711 114.747 C 210.960 114.747,214.194 112.874,215.289 112.097 C 217.711 110.377,223.272 104.710,223.272 103.962 C 223.272 103.830,223.532 103.412,223.851 103.034 C 224.169 102.656,224.587 101.901,224.778 101.357 C 224.970 100.813,225.287 100.192,225.483 99.975 C 225.679 99.759,226.041 98.775,226.287 97.789 C 226.534 96.803,226.881 95.834,227.059 95.636 C 228.165 94.410,228.086 77.741,226.969 76.395 C 226.853 76.256,226.554 75.404,226.305 74.503 C 226.055 73.601,225.633 72.463,225.368 71.973 C 225.103 71.484,224.732 70.720,224.543 70.276 C 224.354 69.833,223.838 69.003,223.394 68.433 C 221.714 66.271,221.353 64.969,222.436 64.979 C 222.907 64.984,224.757 66.939,225.461 68.177 C 225.841 68.845,226.400 69.773,226.703 70.238 C 227.007 70.703,227.410 71.550,227.600 72.120 C 227.790 72.690,228.043 73.281,228.162 73.433 C 228.281 73.585,228.621 74.570,228.917 75.622 C 229.213 76.674,229.611 78.001,229.801 78.571 C 230.108 79.490,230.453 82.755,230.484 85.023 C 230.536 88.823,229.282 95.557,227.961 98.567 C 226.981 100.801,225.369 103.965,224.473 105.415 L 223.618 106.797 223.502 110.639 C 223.399 114.076,223.336 114.549,222.903 115.134 C 222.428 115.775,222.427 115.794,222.859 116.131 C 223.472 116.609,223.575 131.593,222.969 132.199 C 222.656 132.512,222.653 132.616,222.949 133.066 C 223.133 133.348,223.398 134.240,223.536 135.049 C 223.675 135.859,223.916 136.676,224.072 136.866 C 224.228 137.056,225.254 139.026,226.353 141.244 C 227.453 143.462,228.713 145.899,229.154 146.659 C 229.595 147.419,230.152 148.466,230.392 148.984 C 231.286 150.916,233.828 155.923,234.594 157.258 C 235.030 158.018,236.255 160.378,237.316 162.501 C 239.186 166.243,239.293 166.399,240.821 167.625 C 241.687 168.320,242.396 168.775,242.396 168.637 C 242.396 168.479,242.763 168.420,243.376 168.478 C 244.139 168.551,244.434 168.474,244.714 168.128 C 245.055 167.707,245.410 167.686,251.567 167.723 L 258.059 167.762 258.522 167.003 C 258.982 166.249,258.984 165.910,258.988 108.065 C 258.991 76.066,259.056 49.647,259.134 49.357 C 259.474 48.086,256.596 48.157,308.065 48.157 C 360.340 48.157,356.696 48.261,356.997 46.755 C 357.077 46.354,357.143 40.140,357.143 32.946 C 357.143 20.434,357.162 19.843,357.581 19.325 C 357.979 18.835,357.988 18.724,357.685 18.136 C 357.500 17.780,357.416 17.279,357.498 17.022 C 357.681 16.444,357.231 15.305,356.719 15.051 C 355.994 14.692,37.546 14.719,36.721 15.078 M264.747 53.961 C 264.303 54.190,263.517 54.377,262.999 54.378 C 262.253 54.378,261.895 54.533,261.271 55.127 L 260.484 55.876 260.599 75.230 L 260.714 94.585 261.379 95.853 C 261.745 96.550,262.242 97.379,262.484 97.696 C 264.419 100.233,265.438 102.257,265.438 103.564 C 265.438 104.562,265.461 104.598,265.911 104.322 C 266.445 103.995,267.176 104.689,268.356 106.641 C 268.687 107.189,270.733 110.300,272.903 113.554 C 275.072 116.808,276.976 119.760,277.134 120.115 C 277.355 120.613,277.419 125.886,277.419 143.415 C 277.419 155.876,277.485 166.400,277.565 166.801 C 277.764 167.793,278.630 168.203,280.530 168.203 C 281.434 168.203,282.323 168.344,282.722 168.550 C 283.340 168.869,283.454 168.860,284.151 168.436 C 284.885 167.988,285.310 167.974,298.387 167.970 C 305.801 167.967,311.980 167.889,312.120 167.796 C 312.886 167.284,312.903 166.762,312.903 144.065 C 312.903 123.714,312.940 121.402,313.283 120.395 C 313.635 119.364,314.929 117.371,322.988 105.453 C 324.601 103.067,326.070 100.889,326.250 100.615 C 326.431 100.340,327.676 98.474,329.015 96.468 C 330.355 94.462,331.601 92.596,331.783 92.321 C 331.965 92.045,332.588 91.110,333.166 90.243 C 333.744 89.375,334.363 88.442,334.542 88.169 C 334.721 87.896,335.343 86.962,335.924 86.093 C 336.506 85.224,337.128 84.291,337.308 84.019 C 338.812 81.742,342.789 75.819,343.958 74.114 C 344.753 72.954,345.675 71.590,346.005 71.083 C 352.935 60.462,354.580 58.295,355.715 58.295 C 355.950 58.295,355.938 58.209,355.662 57.933 C 355.197 57.468,355.194 57.480,355.890 56.568 C 356.458 55.824,356.467 55.766,356.113 55.082 L 355.744 54.370 337.262 54.431 L 318.779 54.493 318.006 55.069 C 317.582 55.386,316.979 56.112,316.668 56.682 C 315.986 57.931,314.839 59.875,313.134 62.673 C 312.437 63.817,311.503 65.374,311.060 66.134 C 309.840 68.222,308.067 71.196,307.396 72.277 C 307.067 72.808,306.486 73.771,306.106 74.419 C 305.726 75.067,305.104 76.106,304.724 76.728 C 304.343 77.350,303.738 78.356,303.378 78.964 C 303.019 79.572,302.217 80.899,301.596 81.912 C 300.976 82.926,300.214 84.222,299.903 84.793 C 298.816 86.785,297.795 88.134,297.397 88.102 C 297.084 88.076,297.005 88.268,297.005 89.050 C 297.005 90.295,296.315 91.244,295.411 91.244 C 294.627 91.244,294.393 90.979,292.879 88.364 C 292.218 87.224,291.235 85.565,290.694 84.677 C 290.152 83.790,289.199 82.208,288.576 81.162 C 287.952 80.116,287.111 78.716,286.705 78.052 C 286.300 77.387,285.766 76.480,285.518 76.037 C 285.271 75.593,284.651 74.556,284.140 73.733 C 283.628 72.909,282.722 71.406,282.125 70.392 C 280.811 68.160,279.823 66.517,279.148 65.438 C 278.870 64.994,278.194 63.854,277.644 62.903 C 277.095 61.953,276.448 60.952,276.207 60.679 C 275.891 60.322,275.788 59.912,275.837 59.220 C 275.895 58.425,275.810 58.184,275.348 57.836 C 275.041 57.604,274.577 56.970,274.319 56.426 C 273.564 54.843,272.762 54.514,269.321 54.378 C 267.149 54.292,266.298 54.171,265.980 53.904 C 265.592 53.577,265.480 53.583,264.747 53.961 M74.793 55.080 C 74.286 55.525,73.848 56.221,73.596 56.981 C 73.378 57.640,72.740 59.372,72.179 60.829 C 71.619 62.287,70.864 64.309,70.502 65.323 C 70.139 66.336,69.490 68.099,69.058 69.240 C 68.626 70.380,67.732 72.765,67.071 74.539 C 66.411 76.313,65.617 78.405,65.308 79.187 C 64.999 79.969,64.746 80.695,64.745 80.800 C 64.744 80.905,64.591 81.284,64.404 81.643 C 64.076 82.271,63.789 83.020,62.051 87.788 C 61.110 90.371,60.267 92.619,59.113 95.622 C 58.651 96.826,58.032 98.485,57.738 99.309 C 57.444 100.132,56.886 101.636,56.499 102.650 C 55.174 106.116,53.884 109.562,53.349 111.060 C 52.789 112.628,52.278 113.959,50.693 117.972 C 50.167 119.303,49.500 121.066,49.209 121.889 C 48.919 122.713,48.367 124.217,47.983 125.230 C 47.069 127.646,46.016 130.471,45.019 133.180 C 44.575 134.384,43.900 136.198,43.517 137.212 C 42.656 139.493,42.087 141.008,39.409 148.157 C 39.053 149.107,38.431 150.714,38.028 151.728 C 37.624 152.742,36.997 154.401,36.633 155.415 C 36.270 156.429,35.593 158.243,35.130 159.447 C 34.667 160.651,34.051 162.258,33.762 163.018 C 33.472 163.779,33.067 164.786,32.862 165.258 C 31.834 167.617,32.398 168.203,35.699 168.203 C 37.632 168.203,38.086 168.272,38.422 168.618 C 38.810 169.019,38.849 169.016,39.478 168.561 C 40.114 168.099,40.472 168.085,53.752 167.972 L 67.374 167.857 68.011 166.935 C 68.362 166.429,68.652 165.840,68.656 165.627 C 68.660 165.415,69.072 163.911,69.572 162.286 C 70.072 160.661,70.968 157.673,71.563 155.645 C 72.836 151.308,73.409 149.990,74.194 149.598 C 75.232 149.079,112.259 149.302,112.844 149.831 C 113.675 150.583,113.941 152.033,113.387 152.783 C 112.931 153.401,112.929 153.433,113.337 153.563 C 114.338 153.880,114.488 154.262,116.958 162.771 C 118.424 167.817,118.697 168.184,120.994 168.195 C 122.180 168.201,122.653 168.309,123.126 168.680 C 123.460 168.943,123.733 169.049,123.733 168.917 C 123.733 168.023,124.567 167.972,139.405 167.972 C 154.509 167.972,154.608 167.965,154.608 166.903 C 154.608 165.989,153.927 163.558,153.454 162.788 C 153.221 162.408,152.905 161.578,152.751 160.945 C 152.598 160.311,152.287 159.482,152.060 159.101 C 151.833 158.721,151.522 157.892,151.369 157.258 C 151.216 156.624,150.905 155.795,150.678 155.415 C 150.451 155.035,150.141 154.205,149.989 153.571 C 149.837 152.938,149.518 152.076,149.280 151.657 C 149.043 151.238,148.731 150.409,148.589 149.814 C 148.447 149.219,148.141 148.399,147.910 147.991 C 147.678 147.583,147.273 146.524,147.009 145.638 C 146.746 144.752,146.440 143.972,146.330 143.904 C 146.219 143.836,146.001 143.236,145.844 142.570 C 145.688 141.904,145.358 140.958,145.111 140.467 C 144.864 139.977,144.412 138.862,144.105 137.990 C 143.799 137.119,143.288 135.663,142.970 134.756 C 142.652 133.849,142.286 132.979,142.156 132.822 C 142.026 132.666,141.713 131.793,141.461 130.884 C 141.209 129.974,140.857 129.004,140.678 128.728 C 140.499 128.452,140.229 127.707,140.079 127.074 C 139.928 126.440,139.613 125.583,139.378 125.168 C 139.143 124.754,138.778 123.821,138.567 123.095 C 138.356 122.368,138.051 121.567,137.888 121.313 C 137.726 121.060,137.418 120.230,137.204 119.470 C 136.990 118.710,136.633 117.776,136.411 117.396 C 136.188 117.016,135.882 116.187,135.730 115.553 C 135.578 114.919,135.312 114.182,135.139 113.915 C 134.966 113.647,134.648 112.818,134.433 112.071 C 134.217 111.325,133.854 110.351,133.625 109.908 C 133.396 109.464,133.003 108.479,132.752 107.719 C 131.860 105.017,131.068 102.921,130.758 102.443 C 130.586 102.177,130.322 101.440,130.171 100.806 C 130.020 100.173,129.705 99.315,129.470 98.901 C 129.235 98.487,128.882 97.530,128.687 96.774 C 128.491 96.019,128.136 95.062,127.897 94.647 C 127.659 94.233,127.390 93.531,127.299 93.088 C 127.208 92.644,126.973 91.970,126.776 91.590 C 126.439 90.937,125.969 89.694,124.423 85.369 C 124.061 84.355,123.357 82.437,122.858 81.106 C 122.360 79.775,121.166 76.561,120.204 73.963 C 119.242 71.365,117.712 67.321,116.804 64.977 C 115.101 60.581,114.680 58.851,115.231 58.511 C 115.463 58.368,115.393 58.211,114.937 57.852 C 114.596 57.584,114.275 57.040,114.190 56.588 C 114.096 56.091,113.740 55.531,113.234 55.087 L 112.426 54.378 94.009 54.378 L 75.592 54.378 74.793 55.080 M181.768 77.900 C 186.504 78.410,190.583 80.422,189.903 81.913 C 189.718 82.319,189.715 82.488,189.891 82.488 C 190.524 82.488,191.912 83.928,192.258 84.944 C 193.871 89.678,192.095 95.017,188.134 97.340 C 184.986 99.187,171.765 101.036,168.886 100.032 C 168.307 99.830,168.024 99.870,167.272 100.262 C 166.504 100.662,166.035 100.724,164.292 100.657 C 161.042 100.530,161.320 101.565,161.272 89.383 C 161.228 78.229,161.223 78.273,162.505 77.911 C 163.589 77.604,178.937 77.596,181.768 77.900 M94.603 87.961 C 94.811 88.690,95.447 90.829,96.018 92.715 C 96.874 95.541,97.038 96.372,96.950 97.433 C 96.856 98.567,96.905 98.770,97.366 99.132 C 97.942 99.585,98.211 100.265,99.304 104.032 C 100.141 106.913,101.286 110.664,102.964 116.014 C 104.928 122.277,105.185 123.453,104.708 123.981 C 104.268 124.466,90.389 124.678,89.650 124.210 C 89.436 124.075,89.121 124.136,88.739 124.386 C 87.646 125.103,82.664 125.081,81.940 124.357 C 81.273 123.690,81.161 124.269,83.263 117.512 C 85.716 109.626,86.945 105.616,87.571 103.456 C 87.919 102.252,88.899 99.038,89.748 96.313 C 90.597 93.589,91.489 90.530,91.729 89.516 C 92.371 86.812,92.475 86.636,93.422 86.636 C 94.204 86.636,94.237 86.673,94.603 87.961 M31.234 175.397 C 30.918 175.848,30.876 177.771,30.876 191.598 L 30.876 207.286 31.371 207.818 C 31.812 208.292,32.005 208.334,33.117 208.203 C 34.719 208.015,36.095 208.371,36.304 209.029 C 36.455 209.504,36.469 209.506,36.692 209.081 C 36.819 208.839,37.086 208.511,37.285 208.353 C 37.573 208.123,69.336 208.065,194.368 208.065 L 351.090 208.065 351.692 207.591 L 352.294 207.118 352.356 193.399 L 352.419 179.680 353.037 179.183 C 353.608 178.724,353.631 178.644,353.333 178.111 C 353.156 177.794,353.008 177.258,353.004 176.920 C 352.991 175.985,352.772 175.591,352.057 175.222 C 351.487 174.927,331.391 174.885,191.499 174.885 L 31.593 174.885 31.234 175.397 M126.542 183.543 C 128.753 184.839,130.193 186.829,129.514 187.648 C 128.858 188.438,126.637 188.202,125.875 187.262 C 122.579 183.195,116.340 186.374,115.949 192.319 C 115.781 194.874,116.005 195.832,117.031 196.954 L 117.919 197.926 120.114 197.926 L 122.309 197.926 123.482 196.999 C 125.338 195.531,124.944 193.783,122.753 193.775 C 120.764 193.769,119.932 192.465,121.237 191.400 C 122.019 190.762,127.756 190.907,128.245 191.576 C 128.789 192.322,128.120 197.500,127.319 198.737 C 126.595 199.855,123.196 200.806,119.926 200.806 L 116.926 200.806 115.664 199.964 C 109.409 195.791,111.943 185.526,119.931 182.674 C 121.398 182.150,124.966 182.619,126.542 183.543 M164.918 183.228 C 167.830 185.156,168.155 188.831,165.644 191.417 C 165.121 191.956,164.569 192.396,164.418 192.396 C 162.976 192.396,162.870 193.980,164.149 196.425 C 165.692 199.375,165.852 199.985,165.213 200.502 C 163.906 201.561,162.404 200.802,161.406 198.577 C 158.656 192.448,154.948 191.828,154.373 197.400 C 154.051 200.517,153.083 201.488,151.196 200.588 C 150.325 200.173,150.332 200.263,150.890 196.659 C 151.028 195.772,151.293 193.957,151.480 192.627 C 152.847 182.896,152.762 183.262,153.759 182.819 C 155.256 182.154,163.768 182.466,164.918 183.228 M201.706 183.277 C 207.922 186.767,206.979 195.927,200.001 199.838 L 198.272 200.806 195.622 200.806 C 193.200 200.806,192.903 200.759,192.166 200.252 C 188.029 197.407,187.136 193.457,189.486 188.387 C 190.416 186.380,192.312 184.239,193.501 183.854 C 193.970 183.701,194.614 183.398,194.931 183.181 C 196.462 182.128,199.742 182.174,201.706 183.277 M231.649 182.746 C 232.320 183.052,232.491 183.859,232.218 185.426 C 232.113 186.028,231.822 187.817,231.572 189.401 C 231.322 190.985,230.994 192.958,230.843 193.785 C 230.325 196.626,231.252 197.926,233.795 197.926 C 237.120 197.926,238.450 195.746,239.066 189.286 C 239.547 184.242,240.255 182.488,241.810 182.488 C 243.321 182.488,243.611 183.503,243.096 186.982 C 242.001 194.377,241.189 197.015,239.472 198.753 C 235.679 202.591,227.977 201.223,227.281 196.588 C 227.111 195.453,227.760 189.258,228.250 187.336 C 228.427 186.644,228.572 185.711,228.572 185.263 C 228.573 183.251,230.070 182.026,231.649 182.746 M277.162 182.936 C 279.984 184.375,280.709 187.805,278.812 190.734 C 277.262 193.125,275.854 193.779,272.253 193.779 C 268.365 193.779,268.324 193.815,267.622 197.926 C 267.206 200.355,266.862 200.922,265.799 200.922 C 263.771 200.922,263.632 199.376,264.988 191.935 C 265.231 190.605,265.543 188.376,265.682 186.982 C 266.136 182.442,266.040 182.510,271.956 182.498 C 275.798 182.490,276.384 182.539,277.162 182.936 M157.022 185.575 C 155.855 186.083,154.969 189.801,155.842 190.525 C 157.774 192.129,163.208 190.447,163.701 188.093 C 164.173 185.838,160.016 184.271,157.022 185.575 M197.330 185.468 C 193.792 186.038,190.806 192.077,192.365 195.509 C 194.168 199.477,198.976 198.620,201.165 193.939 C 203.350 189.268,201.338 184.823,197.330 185.468 M271.030 185.460 C 270.493 185.553,270.014 185.674,269.964 185.729 C 269.048 186.748,268.567 189.995,269.248 190.560 C 270.340 191.464,274.109 190.843,275.307 189.560 C 277.643 187.060,275.216 184.734,271.030 185.460 " stroke="none" fill="#fb0404" fill-rule="evenodd"></path></g></svg>